<svg xmlns="http://www.w3.org/2000/svg" version="1.1" xmlns:xlink="http://www.w3.org/1999/xlink" xmlns:svgjs="http://svgjs.com/svgjs" width="1920" height="1080" preserveAspectRatio="none" viewBox="0 0 1920 1080"><g mask="url(&quot;#SvgjsMask1023&quot;)" fill="none"><rect width="1920" height="1080" x="0" y="0" fill="rgba(0, 10, 74, 1)"></rect><g mask="url(&quot;#SvgjsMask1024&quot;)"><path d="M976 1104L976 1072" stroke="rgba(0, 0, 0, 1)" stroke-width="5.33"></path><path d="M968 1072 a8 8 0 1 0 16 0 a8 8 0 1 0 -16 0z" fill="rgba(0, 0, 0, 1)"></path><path d="M944 976L976 944M976 688L1008 656L1008 624L1008 592M944 880L912 848L912 816L912 784L944 752M944 1104L944 1072L944 1040L944 1008L944 976L944 944L944 912L944 880L944 848L944 816L976 784L976 752L976 720L976 688L976 656" stroke="rgba(206, 206, 206, 1)" stroke-width="5.33"></path><path d="M968 656 a8 8 0 1 0 16 0 a8 8 0 1 0 -16 0zM968 944 a8 8 0 1 0 16 0 a8 8 0 1 0 -16 0zM1000 592 a8 8 0 1 0 16 0 a8 8 0 1 0 -16 0zM936 752 a8 8 0 1 0 16 0 a8 8 0 1 0 -16 0z" fill="rgba(206, 206, 206, 1)"></path><path d="M1072 496L1040 464L1040 432L1040 400M1104 336L1072 304M1040 816L1008 784L1008 752L1008 720L1008 688M1072 528L1040 496L1008 464L1008 432L1008 400L1008 368L1008 336M1040 1072L1008 1040L1008 1008L1008 976M1104 368L1072 336L1040 304L1040 272M1104 272L1072 240M1008 1104L1040 1072L1040 1040L1040 1008L1040 976L1040 944L1040 912L1040 880L1040 848L1040 816L1040 784L1040 752L1040 720L1040 688L1040 656L1040 624L1072 592L1072 560L1072 528L1072 496L1072 464L1104 432L1104 400L1104 368L1104 336L1104 304L1104 272L1104 240" stroke="rgba(206, 206, 206, 1)" stroke-width="5.33"></path><path d="M1096 240 a8 8 0 1 0 16 0 a8 8 0 1 0 -16 0zM1032 400 a8 8 0 1 0 16 0 a8 8 0 1 0 -16 0zM1064 304 a8 8 0 1 0 16 0 a8 8 0 1 0 -16 0zM1000 688 a8 8 0 1 0 16 0 a8 8 0 1 0 -16 0zM1000 336 a8 8 0 1 0 16 0 a8 8 0 1 0 -16 0zM1000 976 a8 8 0 1 0 16 0 a8 8 0 1 0 -16 0zM1032 272 a8 8 0 1 0 16 0 a8 8 0 1 0 -16 0zM1064 240 a8 8 0 1 0 16 0 a8 8 0 1 0 -16 0z" fill="rgba(206, 206, 206, 1)"></path><path d="M880 1040L912 1008L912 976L912 944L912 912M880 1072L912 1040M912 1104L880 1072L880 1040L880 1008L880 976" stroke="rgba(0, 0, 0, 1)" stroke-width="5.33"></path><path d="M872 976 a8 8 0 1 0 16 0 a8 8 0 1 0 -16 0zM904 912 a8 8 0 1 0 16 0 a8 8 0 1 0 -16 0zM904 1040 a8 8 0 1 0 16 0 a8 8 0 1 0 -16 0z" fill="rgba(0, 0, 0, 1)"></path><path d="M1072 688L1072 656L1072 624M1072 1104L1072 1072L1072 1040L1072 1008L1072 976L1072 944L1072 912L1072 880L1072 848L1072 816L1072 784L1072 752L1072 720L1072 688L1104 656L1104 624L1104 592L1104 560" stroke="rgba(206, 206, 206, 1)" stroke-width="5.33"></path><path d="M1096 560 a8 8 0 1 0 16 0 a8 8 0 1 0 -16 0zM1064 624 a8 8 0 1 0 16 0 a8 8 0 1 0 -16 0z" fill="rgba(206, 206, 206, 1)"></path><path d="M848 880L880 848L880 816M848 912L816 880M848 784L816 752M848 1104L848 1072L848 1040L848 1008L848 976L848 944L848 912L848 880L848 848L848 816L848 784L848 752L848 720L848 688" stroke="rgba(0, 0, 0, 1)" stroke-width="5.33"></path><path d="M840 688 a8 8 0 1 0 16 0 a8 8 0 1 0 -16 0zM872 816 a8 8 0 1 0 16 0 a8 8 0 1 0 -16 0zM808 880 a8 8 0 1 0 16 0 a8 8 0 1 0 -16 0zM808 752 a8 8 0 1 0 16 0 a8 8 0 1 0 -16 0z" fill="rgba(0, 0, 0, 1)"></path><path d="M1104 848L1136 816L1136 784L1136 752L1168 720L1168 688L1168 656M1136 400L1168 368M1104 880L1136 848L1168 816L1168 784M1136 272L1168 240L1168 208L1168 176L1168 144L1168 112M1104 1072L1136 1040L1136 1008L1136 976L1136 944L1136 912L1136 880M1136 304L1168 272L1200 240L1200 208L1200 176M1136 624L1168 592M1104 144L1072 112M1104 1104L1104 1072L1104 1040L1104 1008L1104 976L1104 944L1104 912L1104 880L1104 848L1104 816L1104 784L1104 752L1104 720L1104 688L1136 656L1136 624L1136 592L1136 560L1136 528L1104 496L1104 464L1136 432L1136 400L1136 368L1136 336L1136 304L1136 272L1136 240L1104 208L1104 176L1104 144L1104 112L1104 80" stroke="rgba(0, 0, 0, 1)" stroke-width="5.33"></path><path d="M1096 80 a8 8 0 1 0 16 0 a8 8 0 1 0 -16 0zM1160 656 a8 8 0 1 0 16 0 a8 8 0 1 0 -16 0zM1160 368 a8 8 0 1 0 16 0 a8 8 0 1 0 -16 0zM1160 784 a8 8 0 1 0 16 0 a8 8 0 1 0 -16 0zM1160 112 a8 8 0 1 0 16 0 a8 8 0 1 0 -16 0zM1128 880 a8 8 0 1 0 16 0 a8 8 0 1 0 -16 0zM1192 176 a8 8 0 1 0 16 0 a8 8 0 1 0 -16 0zM1160 592 a8 8 0 1 0 16 0 a8 8 0 1 0 -16 0zM1064 112 a8 8 0 1 0 16 0 a8 8 0 1 0 -16 0z" fill="rgba(0, 0, 0, 1)"></path><path d="M752 560L784 528L784 496L784 464M752 528L720 496M720 112L752 80M784 816L816 784M752 304L784 272L784 240L784 208L816 176L816 144L816 112L816 80M752 208L720 176L720 144L688 112L688 80M752 368L784 336L784 304M752 720L784 688L816 656L816 624L816 592L816 560L816 528L816 496L816 464L816 432L816 400L816 368M816 1104L816 1072L816 1040L816 1008L784 976L784 944L784 912L784 880L784 848L784 816L784 784L752 752L752 720L752 688L752 656L752 624L752 592L752 560L752 528L752 496L752 464L752 432L752 400L752 368L752 336L752 304L752 272L752 240L752 208L752 176L752 144L720 112L720 80" stroke="rgba(0, 0, 0, 1)" stroke-width="5.33"></path><path d="M712 80 a8 8 0 1 0 16 0 a8 8 0 1 0 -16 0zM776 464 a8 8 0 1 0 16 0 a8 8 0 1 0 -16 0zM712 496 a8 8 0 1 0 16 0 a8 8 0 1 0 -16 0zM744 80 a8 8 0 1 0 16 0 a8 8 0 1 0 -16 0zM808 784 a8 8 0 1 0 16 0 a8 8 0 1 0 -16 0zM808 80 a8 8 0 1 0 16 0 a8 8 0 1 0 -16 0zM680 80 a8 8 0 1 0 16 0 a8 8 0 1 0 -16 0zM776 304 a8 8 0 1 0 16 0 a8 8 0 1 0 -16 0zM808 368 a8 8 0 1 0 16 0 a8 8 0 1 0 -16 0z" fill="rgba(0, 0, 0, 1)"></path><path d="M1168 976L1200 944M1168 912L1200 880L1200 848L1232 816L1232 784M1168 1008L1200 976M1136 1104L1168 1072L1168 1040L1168 1008L1168 976L1168 944L1168 912L1168 880" stroke="rgba(0, 0, 0, 1)" stroke-width="5.33"></path><path d="M1160 880 a8 8 0 1 0 16 0 a8 8 0 1 0 -16 0zM1192 944 a8 8 0 1 0 16 0 a8 8 0 1 0 -16 0zM1224 784 a8 8 0 1 0 16 0 a8 8 0 1 0 -16 0zM1192 976 a8 8 0 1 0 16 0 a8 8 0 1 0 -16 0z" fill="rgba(0, 0, 0, 1)"></path><path d="M688 656L720 624L720 592L720 560L720 528L688 496M752 816L720 784M784 1040L752 1008M784 1104L784 1072L784 1040L784 1008L752 976L752 944L752 912L752 880L752 848L752 816L752 784L720 752L720 720L688 688L688 656L688 624L688 592L688 560" stroke="rgba(206, 206, 206, 1)" stroke-width="5.33"></path><path d="M680 560 a8 8 0 1 0 16 0 a8 8 0 1 0 -16 0zM680 496 a8 8 0 1 0 16 0 a8 8 0 1 0 -16 0zM712 784 a8 8 0 1 0 16 0 a8 8 0 1 0 -16 0zM744 1008 a8 8 0 1 0 16 0 a8 8 0 1 0 -16 0z" fill="rgba(206, 206, 206, 1)"></path><path d="M656 304L688 272L688 240M688 752L688 720M656 432L688 400L688 368M656 336L688 304L720 272L720 240L720 208L688 176L688 144M720 976L688 944L688 912L688 880M656 240L624 208L624 176L592 144M720 880L720 848L720 816M752 1104L752 1072L720 1040L720 1008L720 976L720 944L720 912L720 880L688 848L688 816L688 784L688 752L656 720L656 688L656 656L656 624L656 592L656 560L656 528L656 496L656 464L656 432L656 400L656 368L656 336L656 304L656 272L656 240L656 208L656 176L624 144" stroke="rgba(206, 206, 206, 1)" stroke-width="5.33"></path><path d="M616 144 a8 8 0 1 0 16 0 a8 8 0 1 0 -16 0zM680 240 a8 8 0 1 0 16 0 a8 8 0 1 0 -16 0zM680 720 a8 8 0 1 0 16 0 a8 8 0 1 0 -16 0zM680 368 a8 8 0 1 0 16 0 a8 8 0 1 0 -16 0zM680 144 a8 8 0 1 0 16 0 a8 8 0 1 0 -16 0zM680 880 a8 8 0 1 0 16 0 a8 8 0 1 0 -16 0zM584 144 a8 8 0 1 0 16 0 a8 8 0 1 0 -16 0zM712 816 a8 8 0 1 0 16 0 a8 8 0 1 0 -16 0z" fill="rgba(206, 206, 206, 1)"></path><path d="M1232 1072L1200 1040L1200 1008L1232 976M1200 1104L1232 1072L1232 1040" stroke="rgba(206, 206, 206, 1)" stroke-width="5.33"></path><path d="M1224 1040 a8 8 0 1 0 16 0 a8 8 0 1 0 -16 0zM1224 976 a8 8 0 1 0 16 0 a8 8 0 1 0 -16 0z" fill="rgba(206, 206, 206, 1)"></path><path d="M720 1104L720 1072L688 1040L688 1008" stroke="rgba(206, 206, 206, 1)" stroke-width="5.33"></path><path d="M680 1008 a8 8 0 1 0 16 0 a8 8 0 1 0 -16 0z" fill="rgba(206, 206, 206, 1)"></path><path d="M624 592L592 560L592 528L592 496M656 816L656 784L656 752M624 624L592 592M624 304L592 272L560 240L560 208L560 176M624 432L592 400L592 368L592 336L560 304L560 272M624 464L592 432L560 400L560 368L560 336M688 1104L688 1072L656 1040L656 1008L656 976L656 944L656 912L656 880L656 848L656 816L624 784L624 752L624 720L624 688L624 656L624 624L624 592L624 560L624 528L624 496L624 464L624 432L624 400L624 368L624 336L624 304L624 272" stroke="rgba(206, 206, 206, 1)" stroke-width="5.33"></path><path d="M616 272 a8 8 0 1 0 16 0 a8 8 0 1 0 -16 0zM584 496 a8 8 0 1 0 16 0 a8 8 0 1 0 -16 0zM648 752 a8 8 0 1 0 16 0 a8 8 0 1 0 -16 0zM584 592 a8 8 0 1 0 16 0 a8 8 0 1 0 -16 0zM552 176 a8 8 0 1 0 16 0 a8 8 0 1 0 -16 0zM552 272 a8 8 0 1 0 16 0 a8 8 0 1 0 -16 0zM552 336 a8 8 0 1 0 16 0 a8 8 0 1 0 -16 0z" fill="rgba(206, 206, 206, 1)"></path><path d="M1264 304L1232 272M1264 592L1296 560M1296 784L1264 752M1264 560L1264 528L1264 496L1264 464M1264 1008L1296 976L1296 944L1296 912L1296 880L1296 848M1264 240L1296 208L1296 176L1296 144L1296 112L1328 80M1296 720L1328 688L1328 656L1296 624L1296 592M1296 816L1328 784L1328 752L1328 720M1264 1104L1264 1072L1264 1040L1264 1008L1264 976L1264 944L1264 912L1264 880L1264 848L1296 816L1296 784L1296 752L1296 720L1296 688L1264 656L1264 624L1264 592L1264 560L1296 528L1296 496L1296 464L1296 432L1264 400L1264 368L1264 336L1264 304L1264 272L1264 240L1264 208L1264 176L1264 144L1264 112" stroke="rgba(0, 0, 0, 1)" stroke-width="5.33"></path><path d="M1256 112 a8 8 0 1 0 16 0 a8 8 0 1 0 -16 0zM1224 272 a8 8 0 1 0 16 0 a8 8 0 1 0 -16 0zM1288 560 a8 8 0 1 0 16 0 a8 8 0 1 0 -16 0zM1256 752 a8 8 0 1 0 16 0 a8 8 0 1 0 -16 0zM1256 464 a8 8 0 1 0 16 0 a8 8 0 1 0 -16 0zM1288 848 a8 8 0 1 0 16 0 a8 8 0 1 0 -16 0zM1320 80 a8 8 0 1 0 16 0 a8 8 0 1 0 -16 0zM1288 592 a8 8 0 1 0 16 0 a8 8 0 1 0 -16 0zM1320 720 a8 8 0 1 0 16 0 a8 8 0 1 0 -16 0z" fill="rgba(0, 0, 0, 1)"></path><path d="M528 368L496 336L496 304L464 272M560 656L592 624M560 528L528 496L496 464L496 432L496 400M496 176L528 144M464 240L496 208M528 464L560 432M464 208L464 176M528 304L528 272L528 240L528 208L528 176M656 1104L624 1072L624 1040L624 1008L624 976L624 944L624 912L624 880L624 848L624 816L592 784L592 752L592 720L592 688L560 656L560 624L560 592L560 560L560 528L560 496L528 464L528 432L528 400L528 368L528 336L528 304L496 272L464 240L464 208L496 176L496 144L496 112" stroke="rgba(0, 0, 0, 1)" stroke-width="5.33"></path><path d="M488 112 a8 8 0 1 0 16 0 a8 8 0 1 0 -16 0zM456 272 a8 8 0 1 0 16 0 a8 8 0 1 0 -16 0zM584 624 a8 8 0 1 0 16 0 a8 8 0 1 0 -16 0zM488 400 a8 8 0 1 0 16 0 a8 8 0 1 0 -16 0zM520 144 a8 8 0 1 0 16 0 a8 8 0 1 0 -16 0zM488 208 a8 8 0 1 0 16 0 a8 8 0 1 0 -16 0zM552 432 a8 8 0 1 0 16 0 a8 8 0 1 0 -16 0zM456 176 a8 8 0 1 0 16 0 a8 8 0 1 0 -16 0zM520 176 a8 8 0 1 0 16 0 a8 8 0 1 0 -16 0z" fill="rgba(0, 0, 0, 1)"></path><path d="M1360 944L1360 912L1360 880M1360 688L1392 656L1392 624L1392 592L1392 560M1328 464L1360 432L1360 400L1360 368L1360 336L1360 304L1360 272M1328 976L1328 944L1328 912M1328 592L1360 560M1296 1104L1328 1072L1328 1040L1328 1008L1328 976L1360 944L1392 912L1392 880L1392 848L1392 816L1392 784L1392 752L1392 720L1360 688L1360 656L1328 624L1328 592L1328 560L1328 528L1328 496L1328 464L1328 432L1328 400" stroke="rgba(0, 0, 0, 1)" stroke-width="5.33"></path><path d="M1320 400 a8 8 0 1 0 16 0 a8 8 0 1 0 -16 0zM1352 880 a8 8 0 1 0 16 0 a8 8 0 1 0 -16 0zM1384 560 a8 8 0 1 0 16 0 a8 8 0 1 0 -16 0zM1352 272 a8 8 0 1 0 16 0 a8 8 0 1 0 -16 0zM1320 912 a8 8 0 1 0 16 0 a8 8 0 1 0 -16 0zM1352 560 a8 8 0 1 0 16 0 a8 8 0 1 0 -16 0z" fill="rgba(0, 0, 0, 1)"></path><path d="M528 624L528 592L528 560M592 944L560 912L560 880L560 848L560 816M592 1008L560 976M592 1104L592 1072L592 1040L592 1008L592 976L592 944L592 912L592 880L592 848L592 816L560 784L560 752L560 720L560 688L528 656L528 624L496 592L496 560L496 528" stroke="rgba(206, 206, 206, 1)" stroke-width="5.33"></path><path d="M488 528 a8 8 0 1 0 16 0 a8 8 0 1 0 -16 0zM520 560 a8 8 0 1 0 16 0 a8 8 0 1 0 -16 0zM552 816 a8 8 0 1 0 16 0 a8 8 0 1 0 -16 0zM552 976 a8 8 0 1 0 16 0 a8 8 0 1 0 -16 0z" fill="rgba(206, 206, 206, 1)"></path><path d="M1456 432L1424 400M1456 336L1424 304L1424 272L1424 240M1456 368L1424 336L1392 304L1392 272M1424 496L1424 464L1424 432L1392 400M1424 528L1392 496L1392 464L1392 432M1360 1104L1360 1072L1360 1040L1360 1008L1360 976L1392 944L1424 912L1424 880L1424 848L1424 816L1424 784L1424 752L1424 720L1424 688L1424 656L1424 624L1424 592L1424 560L1424 528L1424 496L1456 464L1456 432L1456 400L1456 368L1456 336L1456 304L1456 272L1456 240L1456 208" stroke="rgba(0, 0, 0, 1)" stroke-width="5.33"></path><path d="M1448 208 a8 8 0 1 0 16 0 a8 8 0 1 0 -16 0zM1416 400 a8 8 0 1 0 16 0 a8 8 0 1 0 -16 0zM1416 240 a8 8 0 1 0 16 0 a8 8 0 1 0 -16 0zM1384 272 a8 8 0 1 0 16 0 a8 8 0 1 0 -16 0zM1384 400 a8 8 0 1 0 16 0 a8 8 0 1 0 -16 0zM1384 432 a8 8 0 1 0 16 0 a8 8 0 1 0 -16 0z" fill="rgba(0, 0, 0, 1)"></path><path d="M560 1104L560 1072" stroke="rgba(206, 206, 206, 1)" stroke-width="5.33"></path><path d="M552 1072 a8 8 0 1 0 16 0 a8 8 0 1 0 -16 0z" fill="rgba(206, 206, 206, 1)"></path><path d="M1488 368L1520 336L1520 304L1520 272L1520 240L1520 208L1520 176L1552 144L1552 112L1552 80M1520 144L1488 112L1488 80M1456 560L1488 528L1488 496L1520 464L1520 432L1552 400L1552 368L1552 336L1552 304L1552 272L1552 240L1552 208L1584 176L1584 144M1488 400L1520 368M1392 1008L1424 976M1488 176L1488 144L1456 112L1456 80M1392 1104L1392 1072L1392 1040L1392 1008L1392 976L1424 944L1456 912L1456 880L1456 848L1456 816L1456 784L1456 752L1456 720L1456 688L1456 656L1456 624L1456 592L1456 560L1456 528L1456 496L1488 464L1488 432L1488 400L1488 368L1488 336L1488 304L1488 272L1488 240L1488 208L1488 176L1520 144L1520 112L1520 80" stroke="rgba(0, 0, 0, 1)" stroke-width="5.33"></path><path d="M1512 80 a8 8 0 1 0 16 0 a8 8 0 1 0 -16 0zM1544 80 a8 8 0 1 0 16 0 a8 8 0 1 0 -16 0zM1480 80 a8 8 0 1 0 16 0 a8 8 0 1 0 -16 0zM1576 144 a8 8 0 1 0 16 0 a8 8 0 1 0 -16 0zM1512 368 a8 8 0 1 0 16 0 a8 8 0 1 0 -16 0zM1416 976 a8 8 0 1 0 16 0 a8 8 0 1 0 -16 0zM1448 80 a8 8 0 1 0 16 0 a8 8 0 1 0 -16 0z" fill="rgba(0, 0, 0, 1)"></path><path d="M432 432L464 400L464 368M496 656L464 624L432 592M496 976L464 944M496 784L496 752M496 944L528 912L528 880M496 1072L528 1040M528 1104L496 1072L496 1040L496 1008L496 976L496 944L496 912L496 880L496 848L496 816L496 784L528 752L528 720L528 688L496 656L496 624L464 592L464 560L464 528L464 496L432 464L432 432L432 400L432 368" stroke="rgba(206, 206, 206, 1)" stroke-width="5.33"></path><path d="M424 368 a8 8 0 1 0 16 0 a8 8 0 1 0 -16 0zM456 368 a8 8 0 1 0 16 0 a8 8 0 1 0 -16 0zM424 592 a8 8 0 1 0 16 0 a8 8 0 1 0 -16 0zM456 944 a8 8 0 1 0 16 0 a8 8 0 1 0 -16 0zM488 752 a8 8 0 1 0 16 0 a8 8 0 1 0 -16 0zM520 880 a8 8 0 1 0 16 0 a8 8 0 1 0 -16 0zM520 1040 a8 8 0 1 0 16 0 a8 8 0 1 0 -16 0z" fill="rgba(206, 206, 206, 1)"></path><path d="M1424 1040L1424 1008M1488 720L1520 688L1520 656L1520 624L1520 592M1488 912L1520 880L1520 848M1424 1072L1456 1040L1488 1008L1488 976L1488 944L1520 912L1552 880M1424 1104L1424 1072L1424 1040L1456 1008L1456 976L1456 944L1488 912L1488 880L1488 848L1488 816L1488 784L1488 752L1488 720L1488 688L1488 656L1488 624L1488 592" stroke="rgba(206, 206, 206, 1)" stroke-width="5.33"></path><path d="M1480 592 a8 8 0 1 0 16 0 a8 8 0 1 0 -16 0zM1416 1008 a8 8 0 1 0 16 0 a8 8 0 1 0 -16 0zM1512 592 a8 8 0 1 0 16 0 a8 8 0 1 0 -16 0zM1512 848 a8 8 0 1 0 16 0 a8 8 0 1 0 -16 0zM1544 880 a8 8 0 1 0 16 0 a8 8 0 1 0 -16 0z" fill="rgba(206, 206, 206, 1)"></path></g></g><defs><mask id="SvgjsMask1023"><rect width="1920" height="1080" fill="#ffffff"></rect></mask><mask id="SvgjsMask1024"><rect width="1920" height="1080" fill="white"></rect><path d="M972 1072 a4 4 0 1 0 8 0 a4 4 0 1 0 -8 0z" fill="black"></path><path d="M972 656 a4 4 0 1 0 8 0 a4 4 0 1 0 -8 0zM972 944 a4 4 0 1 0 8 0 a4 4 0 1 0 -8 0zM1004 592 a4 4 0 1 0 8 0 a4 4 0 1 0 -8 0zM940 752 a4 4 0 1 0 8 0 a4 4 0 1 0 -8 0z" fill="black"></path><path d="M1100 240 a4 4 0 1 0 8 0 a4 4 0 1 0 -8 0zM1036 400 a4 4 0 1 0 8 0 a4 4 0 1 0 -8 0zM1068 304 a4 4 0 1 0 8 0 a4 4 0 1 0 -8 0zM1004 688 a4 4 0 1 0 8 0 a4 4 0 1 0 -8 0zM1004 336 a4 4 0 1 0 8 0 a4 4 0 1 0 -8 0zM1004 976 a4 4 0 1 0 8 0 a4 4 0 1 0 -8 0zM1036 272 a4 4 0 1 0 8 0 a4 4 0 1 0 -8 0zM1068 240 a4 4 0 1 0 8 0 a4 4 0 1 0 -8 0z" fill="black"></path><path d="M876 976 a4 4 0 1 0 8 0 a4 4 0 1 0 -8 0zM908 912 a4 4 0 1 0 8 0 a4 4 0 1 0 -8 0zM908 1040 a4 4 0 1 0 8 0 a4 4 0 1 0 -8 0z" fill="black"></path><path d="M1100 560 a4 4 0 1 0 8 0 a4 4 0 1 0 -8 0zM1068 624 a4 4 0 1 0 8 0 a4 4 0 1 0 -8 0z" fill="black"></path><path d="M844 688 a4 4 0 1 0 8 0 a4 4 0 1 0 -8 0zM876 816 a4 4 0 1 0 8 0 a4 4 0 1 0 -8 0zM812 880 a4 4 0 1 0 8 0 a4 4 0 1 0 -8 0zM812 752 a4 4 0 1 0 8 0 a4 4 0 1 0 -8 0z" fill="black"></path><path d="M1100 80 a4 4 0 1 0 8 0 a4 4 0 1 0 -8 0zM1164 656 a4 4 0 1 0 8 0 a4 4 0 1 0 -8 0zM1164 368 a4 4 0 1 0 8 0 a4 4 0 1 0 -8 0zM1164 784 a4 4 0 1 0 8 0 a4 4 0 1 0 -8 0zM1164 112 a4 4 0 1 0 8 0 a4 4 0 1 0 -8 0zM1132 880 a4 4 0 1 0 8 0 a4 4 0 1 0 -8 0zM1196 176 a4 4 0 1 0 8 0 a4 4 0 1 0 -8 0zM1164 592 a4 4 0 1 0 8 0 a4 4 0 1 0 -8 0zM1068 112 a4 4 0 1 0 8 0 a4 4 0 1 0 -8 0z" fill="black"></path><path d="M716 80 a4 4 0 1 0 8 0 a4 4 0 1 0 -8 0zM780 464 a4 4 0 1 0 8 0 a4 4 0 1 0 -8 0zM716 496 a4 4 0 1 0 8 0 a4 4 0 1 0 -8 0zM748 80 a4 4 0 1 0 8 0 a4 4 0 1 0 -8 0zM812 784 a4 4 0 1 0 8 0 a4 4 0 1 0 -8 0zM812 80 a4 4 0 1 0 8 0 a4 4 0 1 0 -8 0zM684 80 a4 4 0 1 0 8 0 a4 4 0 1 0 -8 0zM780 304 a4 4 0 1 0 8 0 a4 4 0 1 0 -8 0zM812 368 a4 4 0 1 0 8 0 a4 4 0 1 0 -8 0z" fill="black"></path><path d="M1164 880 a4 4 0 1 0 8 0 a4 4 0 1 0 -8 0zM1196 944 a4 4 0 1 0 8 0 a4 4 0 1 0 -8 0zM1228 784 a4 4 0 1 0 8 0 a4 4 0 1 0 -8 0zM1196 976 a4 4 0 1 0 8 0 a4 4 0 1 0 -8 0z" fill="black"></path><path d="M684 560 a4 4 0 1 0 8 0 a4 4 0 1 0 -8 0zM684 496 a4 4 0 1 0 8 0 a4 4 0 1 0 -8 0zM716 784 a4 4 0 1 0 8 0 a4 4 0 1 0 -8 0zM748 1008 a4 4 0 1 0 8 0 a4 4 0 1 0 -8 0z" fill="black"></path><path d="M620 144 a4 4 0 1 0 8 0 a4 4 0 1 0 -8 0zM684 240 a4 4 0 1 0 8 0 a4 4 0 1 0 -8 0zM684 720 a4 4 0 1 0 8 0 a4 4 0 1 0 -8 0zM684 368 a4 4 0 1 0 8 0 a4 4 0 1 0 -8 0zM684 144 a4 4 0 1 0 8 0 a4 4 0 1 0 -8 0zM684 880 a4 4 0 1 0 8 0 a4 4 0 1 0 -8 0zM588 144 a4 4 0 1 0 8 0 a4 4 0 1 0 -8 0zM716 816 a4 4 0 1 0 8 0 a4 4 0 1 0 -8 0z" fill="black"></path><path d="M1228 1040 a4 4 0 1 0 8 0 a4 4 0 1 0 -8 0zM1228 976 a4 4 0 1 0 8 0 a4 4 0 1 0 -8 0z" fill="black"></path><path d="M684 1008 a4 4 0 1 0 8 0 a4 4 0 1 0 -8 0z" fill="black"></path><path d="M620 272 a4 4 0 1 0 8 0 a4 4 0 1 0 -8 0zM588 496 a4 4 0 1 0 8 0 a4 4 0 1 0 -8 0zM652 752 a4 4 0 1 0 8 0 a4 4 0 1 0 -8 0zM588 592 a4 4 0 1 0 8 0 a4 4 0 1 0 -8 0zM556 176 a4 4 0 1 0 8 0 a4 4 0 1 0 -8 0zM556 272 a4 4 0 1 0 8 0 a4 4 0 1 0 -8 0zM556 336 a4 4 0 1 0 8 0 a4 4 0 1 0 -8 0z" fill="black"></path><path d="M1260 112 a4 4 0 1 0 8 0 a4 4 0 1 0 -8 0zM1228 272 a4 4 0 1 0 8 0 a4 4 0 1 0 -8 0zM1292 560 a4 4 0 1 0 8 0 a4 4 0 1 0 -8 0zM1260 752 a4 4 0 1 0 8 0 a4 4 0 1 0 -8 0zM1260 464 a4 4 0 1 0 8 0 a4 4 0 1 0 -8 0zM1292 848 a4 4 0 1 0 8 0 a4 4 0 1 0 -8 0zM1324 80 a4 4 0 1 0 8 0 a4 4 0 1 0 -8 0zM1292 592 a4 4 0 1 0 8 0 a4 4 0 1 0 -8 0zM1324 720 a4 4 0 1 0 8 0 a4 4 0 1 0 -8 0z" fill="black"></path><path d="M492 112 a4 4 0 1 0 8 0 a4 4 0 1 0 -8 0zM460 272 a4 4 0 1 0 8 0 a4 4 0 1 0 -8 0zM588 624 a4 4 0 1 0 8 0 a4 4 0 1 0 -8 0zM492 400 a4 4 0 1 0 8 0 a4 4 0 1 0 -8 0zM524 144 a4 4 0 1 0 8 0 a4 4 0 1 0 -8 0zM492 208 a4 4 0 1 0 8 0 a4 4 0 1 0 -8 0zM556 432 a4 4 0 1 0 8 0 a4 4 0 1 0 -8 0zM460 176 a4 4 0 1 0 8 0 a4 4 0 1 0 -8 0zM524 176 a4 4 0 1 0 8 0 a4 4 0 1 0 -8 0z" fill="black"></path><path d="M1324 400 a4 4 0 1 0 8 0 a4 4 0 1 0 -8 0zM1356 880 a4 4 0 1 0 8 0 a4 4 0 1 0 -8 0zM1388 560 a4 4 0 1 0 8 0 a4 4 0 1 0 -8 0zM1356 272 a4 4 0 1 0 8 0 a4 4 0 1 0 -8 0zM1324 912 a4 4 0 1 0 8 0 a4 4 0 1 0 -8 0zM1356 560 a4 4 0 1 0 8 0 a4 4 0 1 0 -8 0z" fill="black"></path><path d="M492 528 a4 4 0 1 0 8 0 a4 4 0 1 0 -8 0zM524 560 a4 4 0 1 0 8 0 a4 4 0 1 0 -8 0zM556 816 a4 4 0 1 0 8 0 a4 4 0 1 0 -8 0zM556 976 a4 4 0 1 0 8 0 a4 4 0 1 0 -8 0z" fill="black"></path><path d="M1452 208 a4 4 0 1 0 8 0 a4 4 0 1 0 -8 0zM1420 400 a4 4 0 1 0 8 0 a4 4 0 1 0 -8 0zM1420 240 a4 4 0 1 0 8 0 a4 4 0 1 0 -8 0zM1388 272 a4 4 0 1 0 8 0 a4 4 0 1 0 -8 0zM1388 400 a4 4 0 1 0 8 0 a4 4 0 1 0 -8 0zM1388 432 a4 4 0 1 0 8 0 a4 4 0 1 0 -8 0z" fill="black"></path><path d="M556 1072 a4 4 0 1 0 8 0 a4 4 0 1 0 -8 0z" fill="black"></path><path d="M1516 80 a4 4 0 1 0 8 0 a4 4 0 1 0 -8 0zM1548 80 a4 4 0 1 0 8 0 a4 4 0 1 0 -8 0zM1484 80 a4 4 0 1 0 8 0 a4 4 0 1 0 -8 0zM1580 144 a4 4 0 1 0 8 0 a4 4 0 1 0 -8 0zM1516 368 a4 4 0 1 0 8 0 a4 4 0 1 0 -8 0zM1420 976 a4 4 0 1 0 8 0 a4 4 0 1 0 -8 0zM1452 80 a4 4 0 1 0 8 0 a4 4 0 1 0 -8 0z" fill="black"></path><path d="M428 368 a4 4 0 1 0 8 0 a4 4 0 1 0 -8 0zM460 368 a4 4 0 1 0 8 0 a4 4 0 1 0 -8 0zM428 592 a4 4 0 1 0 8 0 a4 4 0 1 0 -8 0zM460 944 a4 4 0 1 0 8 0 a4 4 0 1 0 -8 0zM492 752 a4 4 0 1 0 8 0 a4 4 0 1 0 -8 0zM524 880 a4 4 0 1 0 8 0 a4 4 0 1 0 -8 0zM524 1040 a4 4 0 1 0 8 0 a4 4 0 1 0 -8 0z" fill="black"></path><path d="M1484 592 a4 4 0 1 0 8 0 a4 4 0 1 0 -8 0zM1420 1008 a4 4 0 1 0 8 0 a4 4 0 1 0 -8 0zM1516 592 a4 4 0 1 0 8 0 a4 4 0 1 0 -8 0zM1516 848 a4 4 0 1 0 8 0 a4 4 0 1 0 -8 0zM1548 880 a4 4 0 1 0 8 0 a4 4 0 1 0 -8 0z" fill="black"></path></mask></defs></svg>